PathFileType	4	(X/Y/Z)	C:/Users/beibeiliu/ov580/test_trc\sequence.43_training_dense_right.trc
DataRate	CameraRate	NumFrames	NumMarkers	Units	OrigDataRate	OrigDataStartFrame	OrigNumFrames
120	120	25	19	mm	120	57	84
Frame#	Time	ThumbCMC			ThumbMCP			ThumbIP			ThumbTip			IndexMCP			IndexPIP			IndexTip			MiddleMCP			MiddlePIP			MiddleTip			RingMCP			RingPIP			RingTip			PinkyMCP			PinkyPIP			PinkyTip			BackHand1			BackHand2			BackHand3	
		X0	Y0	Z0	X1	Y1	Z1	X2	Y2	Z2	X3	Y3	Z3	X4	Y4	Z4	X5	Y5	Z5	X6	Y6	Z6	X7	Y7	Z7	X8	Y8	Z8	X9	Y9	Z9	X10	Y10	Z10	X11	Y11	Z11	X12	Y12	Z12	X13	Y13	Z13	X14	Y14	Z14	X15	Y15	Z15	X16	Y16	Z16	X17	Y17	Z17	X18	Y18	Z18	
56	0.466667	119.23	99.7952	42.4288	93.013	115.577	34.7641	74.5162	118.698	22.8467	53.2145	114.949	13.7787	85.5228	94.0533	-14.7908	61.8222	101.33	-9.97459	63.0841	101.351	21.7828	76.5351	78.335	-11.1645	52.2919	83.5774	3.21094	68.5808	86.1875	31.8168	72.9163	63.5906	0.0931091	54.9217	71.8385	20.9019	74.1683	72.9587	40.1964	72.8828	51.1008	10.8084	59.5433	60.1684	30.0942	80.3065	65.7197	45.4331	118.49	50.4866	18.8247	134.851	50.8606	40.0614	132.051	76.3473	24.038	
57	0.475	129.65	88.1646	40.5782	110.628	112.433	27.8578	92.6607	124.145	16.1673	75.2065	124.957	11.5831	92.9185	89.2279	-14.891	69.3201	104.918	-9.58467	76.0733	107.644	20.4159	73.7995	76.9331	-7.6282	57.1596	97.9107	7.26359	74.5478	94.0031	32.3033	65.0404	65.985	6.85922	56.3675	86.6042	23.0682	80.3014	84.6928	40.3896	58.7038	57.9897	19.87	59.3323	77.3121	33.2254	84.3314	74.1253	47.8928	107.733	42.587	23.456	120.536	36.776	42.7676	128.463	57.819	25.0887	
58	0.483333	130.204	71.1791	37.7541	123.451	98.8196	28.1502	112.534	114.863	15.499	90.5117	123.399	7.9271	90.9795	78.1963	-11.7152	79.6815	105.337	-9.67068	89.1885	109.177	17.1899	72.749	74.7012	-3.3067	63.1764	102.14	10.7241	87.3589	96.5335	32.4407	63.6143	73.3093	10.7938	62.7507	94.4367	29.2232	83.5315	86.702	42.9151	53.8708	66.6928	28.6391	62.337	86.822	40.6377	85.067	77.5313	51.9196	90.3228	35.3468	34.3001	107.117	26.5061	55.0405	119.594	41.3632	30.8624	
59	0.491667	126.721	57.2016	41.83	129.011	86.1664	27.7687	114.06	101.069	15.4068	102.762	116.42	8.50817	91.5699	71.5421	-10.1982	82.9633	97.7474	-8.01973	93.8059	102.359	20.0782	69.6936	76.4104	-0.13956	70.7662	103.26	11.4537	89.498	94.9262	34.5024	58.7965	75.7866	16.9009	67.7595	98.0012	31.5483	85.0745	84.2208	47.7152	51.8285	70.974	34.8298	64.6954	90.4659	45.3491	84.8042	77.0465	52.0448	78.6037	34.9224	36.388	94.2363	21.5802	60.8981	108.344	29.819	36.7747	
60	0.5	128.036	49.5619	45.2186	124.656	75.854	31.3586	119.187	94.7075	17.7514	106.794	113.581	8.88808	85.4569	67.7952	-7.41172	87.423	96.4464	-3.4917	102.03	97.6099	22.6778	71.2882	71.1926	3.27132	76.201	100.514	10.4613	93.0829	86.3377	39.497	57.9673	78.9173	20.7052	71.0618	95.8668	33.9632	87.3057	79.3899	50.5777	51.466	73.2622	40.4015	72.283	88.5517	45.73	85.6256	74.3543	58.4118	71.9164	31.363	42.5886	86.2846	18.9376	64.3347	100.785	25.2496	37.3872	
61	0.508333	123.959	46.869	43.0646	129.01	74.7505	32.5087	119.812	94.3607	18.7535	104.525	108.304	13.6285	87.7529	63.3142	-4.34618	84.0384	93.9872	-0.348543	101.286	96.0485	21.3055	67.7308	70.1767	8.6358	77.6547	99.8551	14.7754	95.1184	86.9901	37.8456	61.1576	75.7467	22.1085	72.4236	94.9058	33.3816	88.4652	78.771	51.9601	54.8295	74.8656	39.6172	69.2267	88.0485	50.0189	89.1432	66.6771	57.8655	69.9341	31.8584	44.1922	83.9099	17.8687	65.1016	101.937	23.0628	38.3847	
62	0.516667	126.068	50.3269	43.8997	124.393	79.2571	34.6527	112.967	99.9478	21.0481	99.5773	114.924	17.3105	84.2664	68.0702	-0.400039	79.8513	95.4185	1.90305	98.7399	99.041	27.6358	65.1189	77.1122	8.3589	73.7226	101.71	19.5788	91.4322	85.369	44.2214	57.1302	75.2217	28.4469	74.5734	95.4223	40.0964	88.9859	73.95	55.591	50.9518	72.4614	46.2732	71.307	86.6531	54.6565	87.8192	65.9432	58.2912	73.9148	30.6726	46.1127	86.5614	16.4645	67.078	101.173	27.5575	38.7075	
63	0.525	124.181	64.9381	43.4445	115.359	92.6886	37.2376	102.342	110.964	28.0535	79.9075	124.201	26.2339	78.0562	77.4969	2.61497	73.9309	107.092	7.82017	85.2948	102.985	36.0521	60.3632	78.5948	14.6355	60.5945	103.467	26.8953	84.2113	87.1265	50.5146	52.3602	74.4636	33.5385	62.1678	94.3891	49.1135	81.6793	78.2584	59.3197	48.4182	69.0247	50.4521	63.3957	85.2189	58.4606	84.8764	69.2678	64.1562	76.0675	32.8399	41.7639	96.0557	20.9907	63.5607	107.311	37.7804	35.8422	
64	0.533333	121.461	75.9051	47.4775	100.338	103.764	37.4824	83.6221	115.485	33.4746	56.0234	115.837	31.8877	74.398	80.2851	0.350264	57.3307	104.634	12.0325	70.8012	102.217	37.729	56.2222	75.716	12.6266	46.4042	94.6157	31.9441	73.2728	89.6875	49.5619	48.2114	66.2895	32.2266	53.1445	86.4938	53.8722	75.6232	77.5461	58.7828	47.4387	58.9196	48.0328	57.4987	76.5513	62.1488	80.7988	66.8376	66.6408	82.513	32.7419	38.8539	105.945	25.2554	57.7378	111.722	45.8565	35.3072	
65	0.541667	111.005	86.3208	43.1418	82.9345	98.7324	36.696	61.4881	103.04	28.5692	39.0168	93.5541	27.4882	70.4575	71.0337	-5.13885	43.7716	81.1771	5.59765	53.5123	89.1729	29.7427	51.2448	57.1985	5.63628	37.2075	72.7719	22.884	60.5867	79.0643	42.9039	49.8872	50.6526	21.8634	45.5456	68.1072	40.4833	71.9478	68.3596	50.7583	51.1668	41.0075	38.6057	54.3809	58.5677	55.9059	76.9266	60.0617	57.3827	97.7905	30.9887	33.6152	119.101	34.7777	53.3613	116.26	51.9705	28.3075	
66	0.55	98.7362	88.4913	35.5922	69.2907	88.4475	26.4062	47.5134	80.7409	11.8347	34.7212	62.5669	8.45625	74.0475	59.2595	-18.8957	47.752	62.0666	-16.3163	50.8666	71.4899	15.7155	68.3525	42.2212	-10.9798	42.1967	48.0124	3.13477	61.1506	59.8748	29.187	61.4336	30.0113	3.79164	48.9307	44.4587	24.3743	68.6827	54.5623	36.8325	66.8246	21.059	19.3725	56.1227	35.7908	33.2657	78.4655	47.2526	46.4262	111.8	30.4418	21.0674	125.213	41.1493	45.4424	120.674	62.1345	25.2946	
67	0.558333	89.8742	83.7472	22.1588	64.858	72.2634	5.18038	54.3397	56.644	-12.0307	44.8762	39.9675	-21.1289	90.4344	55.8712	-38.2684	63.4993	48.8577	-39.5444	58.0416	50.7187	-10.0253	85.8046	38.3885	-35.5996	61.8001	30.2791	-26.425	65.4112	42.0144	3.57021	90.8189	21.263	-20.2815	65.4285	24.9414	-8.93115	74.6333	39.1707	13.3709	92.1733	9.71729	-5.31158	71.4158	23.1946	6.24101	82.5285	36.0093	22.6542	126.548	39.199	10.2807	132.655	46.7387	37.8428	122.121	70.2453	12.5116	
68	0.566667	88.8044	72.0855	0.733418	72.6686	57.6162	-19.9689	62.5383	46.0603	-42.9749	63.798	28.0115	-57.7451	108.706	59.2008	-58.9454	88.9288	42.3211	-70.7525	71.2519	41.373	-45.6745	111.242	36.6231	-62.3956	87.8117	23.8782	-59.9707	79.9401	30.5483	-28.6704	115.46	20.8264	-49.1634	89.1025	17.6945	-44.0366	87.0438	30.8843	-16.826	117.299	11.0757	-36.0336	95.7479	11.6792	-32.069	94.5479	29.0062	-9.07951	137.672	45.9234	-8.56938	137.019	48.7339	16.5381	127.064	67.8928	-3.0692	
69	0.575	96.9303	62.2993	-27.7195	83.7404	48.3601	-49.6296	80.62	38.7031	-75.5052	82.7443	25.1558	-89.1654	119.34	65.7485	-87.4809	105.925	47.4865	-101.407	87.3385	35.4092	-82.2543	129.92	46.7956	-87.2768	109.034	27.9457	-94.9729	97.3281	22.4458	-63.9123	137.354	29.719	-75.9279	113.397	18.2931	-80.1603	102.232	18.1307	-52.3484	138.011	18.1674	-66.169	119.134	6.50695	-65.0751	106.625	16.9645	-45.2987	149.136	48.9187	-32.6925	139.271	53.4924	-3.29495	125.938	70.684	-21.5183	
70	0.583333	97.5829	58.4779	-49.7016	90.147	43.8307	-77.1518	85.3218	37.1605	-100.932	92.039	25.5535	-119.059	129.069	68.6137	-110.251	119.63	53.4158	-129.538	98.8091	32.3588	-117.086	144.25	52.9701	-108.633	128.838	36.0173	-126.851	111.793	17.9518	-104.855	149.294	40.3165	-99.572	133.764	23.116	-113.088	113.241	16.008	-94.0095	154.626	25.9867	-90.1908	135.89	10.9553	-96.1628	117.663	13.8996	-84.8574	151.928	53.5446	-55.0485	142.957	55.5017	-29.7045	129.174	73.1983	-46.1763	
71	0.591667	97.3595	57.63	-71.8578	85.1085	44.144	-95.3354	87.7334	34.4418	-119.079	88.0254	23.0941	-139.74	131.511	68.6819	-127.134	133.137	52.4502	-151.178	116.884	32.9459	-156.775	148.306	56.2269	-130.2	145.067	39.5624	-150.886	122.331	13.442	-144.226	157.903	42.4949	-117.952	153.193	24.133	-135.205	127.692	7.37546	-130.882	163.883	27.4499	-101.826	155.609	15.2311	-120.119	134.976	5.52369	-118.354	152.474	55.6036	-69.958	140.408	57.4033	-44.2398	125.294	70.0596	-64.8113	
72	0.6	95.2384	54.6634	-77.6481	81.7609	40.256	-103.787	77.6759	30.6646	-124.192	74.1869	18.6522	-141.683	131.524	57.0605	-133.876	136.43	44.9444	-162.391	129.87	24.9386	-176.864	149.811	46.8087	-136.619	154.057	31.8253	-160.247	141.754	9.45194	-172.8	158.096	35.7728	-122.701	157.499	21.1742	-147.757	147.27	-1.22982	-156.573	163.451	22.2236	-107.012	162.481	7.01338	-128.528	151.346	-10.2687	-138.862	150.242	49.3757	-80.3744	143.585	53.2501	-59.0755	124.65	66.304	-81.694	
73	0.608333	95.9831	48.5704	-75.6461	76.2769	35.8682	-93.9326	72.9316	24.0912	-113.393	66.0603	15.6123	-130.06	127.558	45.9036	-132.616	128.325	37.1058	-156.738	129.731	23.1894	-174.236	145.788	35.8781	-132.55	150.439	24.6859	-152.607	149.03	6.18051	-174.443	154.319	24.963	-118.37	160.621	10.3802	-141.587	155.702	-4.89326	-158.39	162.279	10.6948	-101.703	165.976	-3.19433	-119.375	163.624	-16.2928	-137.922	147.501	40.5301	-79.6073	141.404	47.4129	-53.0128	123.957	58.6435	-74.5362	
74	0.616667	94.4971	42.9921	-56.1316	78.5359	28.8975	-77.7209	71.3759	19.6684	-94.5537	64.7958	10.3199	-112.048	120.539	37.1939	-116.829	120.926	26.717	-140.726	122.473	12.7165	-156.14	138.449	25.8897	-118.107	142.851	13.2307	-138.747	144.364	0.469178	-158.038	149.417	15.7317	-103.12	152.241	0.483102	-127.925	151.247	-7.85988	-141.494	157.246	2.6128	-87.3807	159.173	-10.6075	-106.267	158.476	-19.5081	-122.98	148.469	32.3226	-64.9289	141.543	41.4988	-37.2638	125.141	53.0058	-62.3687	
75	0.625	83.4552	44.4555	-32.2064	65.2126	32.1575	-49.9675	57.3864	22.9456	-68.7485	49.2596	14.0318	-89.8274	103.47	36.4995	-96.077	100.575	25.4843	-116.541	95.5043	13.2122	-134.771	119.684	28.1369	-94.516	119.956	14.8608	-119.559	119.339	-2.28816	-141.112	133.895	12.5429	-87.5952	131.747	4.54428	-104.005	130.129	-8.62278	-122.359	142.445	2.17935	-67.2736	143.09	-8.9386	-81.9165	143.76	-19.8453	-101.203	136.906	31.9919	-44.2352	132.351	39.7518	-17.2307	113.642	55.2653	-39.8653	
76	0.633333	55.9185	44.5699	-2.10901	35.8643	31.9227	-25.0309	28.8594	21.891	-41.329	18.9965	12.0156	-58.9166	69.1027	39.0934	-66.9855	59.0802	28.9597	-89.2506	55.4248	9.20034	-108.525	83.6422	30.7816	-73.4857	82.3865	17.3181	-95.7491	76.4578	2.69637	-114.385	97.8733	19.4905	-64.0375	96.5207	6.59109	-86.7951	92.4247	-4.19878	-101.605	110.865	8.02368	-49.749	111.261	-2.40476	-64.3849	110.045	-11.5238	-84.7126	104.643	37.3382	-19.4438	109.382	43.4596	0.707695	84.908	55.7435	-10.1361	
77	0.641667	26.4371	34.3668	19.6134	10.5123	19.1208	1.95825	0.341818	11.0567	-17.3862	-6.75752	-0.665417	-36.314	26.8404	34.6897	-50.1273	21.5597	21.3184	-68.3898	18.2594	3.93367	-85.153	48.4263	27.0499	-55.6712	42.0749	16.8108	-75.9414	41.2905	-2.06206	-96.3408	67.9472	17.3216	-52.8735	60.1814	9.43561	-68.7064	56.0627	-1.1518	-85.3927	85.3035	7.96158	-36.2365	84.131	-1.73482	-53.8347	82.4111	-11.1858	-72.9343	73.919	35.2556	-7.01401	79.8745	39.4147	16.182	54.5121	48.1068	6.45796	
78	0.65	13.9156	18.9832	31.0389	-2.87478	2.52945	13.9294	-13.9072	-6.21148	-11.7443	-14.4419	-15.8792	-29.7131	12.4101	22.9549	-35.8632	1.74134	11.7133	-58.1681	-0.0181877	-7.20567	-74.9157	31.1873	20.732	-43.9278	28.8632	8.15055	-68.6616	22.9675	-9.65261	-87.6268	51.775	13.0164	-44.2551	48.2731	3.20326	-65.5309	41.0669	-9.13334	-80.8943	70.6661	4.95701	-34.8631	71.5561	-2.27199	-48.2437	67.1532	-8.36424	-67.4236	58.6798	31.0172	0.914308	62.3871	35.7925	26.8462	37.1894	38.0239	14.7231	
79	0.658333	10.3258	12.9299	30.1646	-6.47251	-2.8341	13.0766	-11.875	-12.0944	-4.25068	-16.9672	-20.4934	-25.9104	3.34568	18.9071	-37.7216	0.221226	5.98839	-59.3796	-8.34275	-11.7422	-72.1751	24.33	18.4896	-43.5007	21.6204	6.53173	-66.8097	15.7419	-16.0768	-88.5256	44.8048	13.3649	-39.7849	40.7243	2.91897	-64.4273	35.9156	-12.3867	-81.545	67.7271	5.74744	-34.1268	62.043	-0.708519	-49.3873	64.7089	-9.75257	-69.3106	54.0847	29.286	3.40109	56.62	33.4564	25.6957	30.8487	33.9336	18.8052	
80	0.666667	10.7995	17.6822	30.8904	-6.70898	0.793428	10.0897	-13.9248	-8.36031	-7.57596	-22.2261	-18.7563	-25.1939	8.17958	23.8723	-39.1854	-0.550217	11.2213	-58.7364	-5.66986	-7.31764	-73.6722	27.0933	21.4536	-45.6948	24.403	9.63992	-68.8082	16.2437	-9.55866	-86.586	46.575	18.0325	-40.6581	41.4698	7.29904	-61.9546	35.7045	-6.66196	-80.4477	64.9184	10.8053	-33.1837	65.292	0.738799	-51.4802	63.5767	-9.01421	-70.2158	53.3895	33.0455	3.48231	58.2194	35.2928	26.4506	31.3528	37.535	18.8248	
